<svg xmlns="http://www.w3.org/2000/svg" width="40" height="30" viewBox="0 0 40 30">
    <g fill="none" fill-rule="evenodd">
        <rect width="40" height="30" fill="#224DBA" rx="2"/>
        <path fill="#FFF" d="M12 18.93H9.577L7.76 11.948c-.086-.321-.27-.605-.539-.739A7.85 7.85 0 0 0 5 10.47v-.269h3.904c.538 0 .942.404 1.01.873l.943 5.036 2.422-5.909h2.356L12 18.93zm4.981 0h-2.288l1.884-8.729h2.289L16.98 18.93zm4.846-6.31c0 1.006 3.164 1.14 3.164 3.423 0 1.813-1.548 3.02-4.039 2.954-.808 0-1.682-.135-2.49-.47l.404-1.88c.74.336 1.548.537 2.356.537.672 0 1.345-.268 1.345-.872.068-.403-.269-.672-1.143-1.074-.808-.404-1.953-1.074-1.953-2.351 0-1.678 1.616-2.887 3.837-2.887.673 0 1.413.135 2.087.404l-.404 1.88a4.238 4.238 0 0 0-2.221-.404c-.472 0-.876.27-.943.74zM33 18.93h-2.087l-.269-1.275H27.75l-.47 1.275h-2.356l3.365-8.057c.135-.403.539-.672.943-.672h1.952L33 18.93zm-3.432-6.378l-1.212 3.29h1.884l-.672-3.29z"/>
    </g>
</svg>
