<svg xmlns="http://www.w3.org/2000/svg" width="40" height="30" viewBox="0 0 40 30">
    <g fill="none" fill-rule="evenodd">
        <rect width="40" height="30" fill="#353A48" rx="2"/>
        <path fill="#FF5E00" d="M20.407 9.03a8.037 8.037 0 0 1 5.19-1.885c4.42 0 8.001 3.532 8.001 7.89 0 4.356-3.582 7.888-8 7.888-1.981 0-3.794-.71-5.19-1.884a8.037 8.037 0 0 1-5.19 1.884c-4.42 0-8.002-3.532-8.002-7.889s3.582-7.889 8.001-7.889c1.98 0 3.793.71 5.19 1.885z"/>
        <path fill="#ED0006" d="M20.407 9.03a7.827 7.827 0 0 0-2.81 6.004 7.827 7.827 0 0 0 2.81 6.005 8.037 8.037 0 0 1-5.19 1.884c-4.419 0-8-3.532-8-7.889s3.581-7.889 8-7.889c1.98 0 3.793.71 5.19 1.885z"/>
        <path fill="#F9A000" d="M20.407 21.039a7.827 7.827 0 0 0 2.812-6.005 7.827 7.827 0 0 0-2.812-6.004 8.037 8.037 0 0 1 5.19-1.885c4.42 0 8.001 3.532 8.001 7.89 0 4.356-3.582 7.888-8 7.888-1.981 0-3.794-.71-5.19-1.884z"/>
    </g>
</svg>
