<svg xmlns="http://www.w3.org/2000/svg" width="40" height="30" viewBox="0 0 40 30">
    <g fill="none" fill-rule="evenodd">
        <rect width="40" height="30" fill="#007ECD" rx="2"/>
        <path fill="#FFF" d="M34.566 18.987H32.81v-.87h1.533s.559.064.559-.3c0-.34-.836-.314-.836-.314s-1.361.116-1.361-1.126c0-1.234 1.23-1.164 1.23-1.164h1.888v.883h-1.52s-.526-.103-.526.27c0 .311.717.267.717.267S36 16.524 36 17.663c0 1.22-.97 1.33-1.315 1.33-.074 0-.119-.006-.119-.006zm-8.76.006V15.22h3.077v.876h-2.085v.581h2.033v.858h-2.033v.64h2.085v.818h-3.078zm5.28-.006H29.33v-.87h1.54s.552.064.552-.3c0-.34-.835-.314-.835-.314s-1.362.116-1.362-1.126c0-1.234 1.23-1.164 1.23-1.164h1.895v.883h-1.526s-.527-.103-.527.27c0 .311.717.267.717.267s1.507-.109 1.507 1.03c0 1.22-.97 1.33-1.315 1.33-.074 0-.12-.006-.12-.006zm-13.306.007h-.861l-1.046-1.12-1.053 1.12h-3.67v-3.787h3.592l1.13 1.203 1.139-1.196h.756v-.007h2.394s1.25-.134 1.25 1.112c0 1.113-.415 1.46-1.69 1.46h-.967v1.215h-.974zm6.578.006v-.736s-.04-.575-.659-.575h-.959V19h-.987v-3.78h2.394s1.25-.147 1.25 1.106c0 .653-.552.883-.552.883s.473.217.473.856V19h-.96zm-2.362-5.175v-3.792h.993v3.792h-.993zm-7.643-.013v-3.78h3.079v.883h-2.086v.582h2.033v.857h-2.033v.64h2.086v.818h-3.079zm-1.546 0v-2.61l-1.236 2.61h-.81L9.52 11.216v2.598H7.572l-.343-.794H5.427l-.348.794H4l1.638-3.781h1.388l1.5 3.473v-3.473h1.558l1.086 2.347 1.078-2.347h1.56v3.78h-1zm19.384 0l-1.564-2.526v2.527H28.693l-.349-.794h-1.802l-.343.794h-1.545s-1.328-.186-1.328-1.785c0-2.098 1.506-2.015 1.558-2.028l1.217.032v.85l-1 .013s-.65 0-.73.826a2.653 2.653 0 0 0-.013.262c.004 1.278 1.14.882 1.178.87l1.223-2.821h1.38l1.48 3.429v-3.43h1.395l1.546 2.49v-2.49h.994v3.782H32.19zm-11.642 0v-.735s-.04-.576-.658-.576h-.96v1.312h-.987v-3.781h2.395s1.25-.147 1.25 1.107c0 .652-.553.882-.553.882s.48.218.48.857v.935h-.967zm-4.005 3.321l1.223 1.317v-2.63l-1.223 1.313zm-4.4 1.042h2.078l.973-1.042-.973-1.037h-2.079v.582h2.026v.858h-2.026v.64zm6.61-1.383h1.02c.295 0 .539-.16.539-.358 0-.197-.244-.358-.54-.358h-1.02v.716zm3.986.007h1.02c.296 0 .539-.16.539-.358 0-.198-.243-.358-.54-.358H22.74v.716zM5.848 12.053h.96l-.48-1.125-.48 1.125zm21.115 0h.96l-.473-1.125-.487 1.125zm-8.032-.441h1.02c.296 0 .539-.16.539-.359 0-.198-.243-.358-.54-.358h-1.019v.717z"/>
    </g>
</svg>
