<svg xmlns="http://www.w3.org/2000/svg" width="40" height="30" viewBox="0 0 40 30">
    <g fill="none" fill-rule="evenodd">
        <rect width="40" height="30" fill="#951315" rx="2"/>
        <path fill="#FEFEFE" fill-rule="nonzero" d="M26.7 12.841c1.028-.03 2.864-.427 2.928.696.029.49-.148 1.04-.242 1.596-.11.652-.214 1.24-.222 1.964h-.747c-.012-.25.023-.453.06-.654-.358.58-1.391 1.003-2.241.634-.442-.192-.672-.878-.465-1.576.31-1.041 1.485-1.284 2.928-1.145.064-.18.153-.425.102-.655-.154-.693-1.75-.294-2.262-.164.053-.232.118-.452.161-.696zM36.132 11H37c-.348 2.007-.818 3.891-.97 6.097h-.787c.004-.234.05-.426.08-.634-.015-.054-.105.133-.16.205a1.52 1.52 0 0 1-.304.306c-.583.389-1.737.278-2.14-.184-.235-.268-.299-.644-.304-1.023-.023-1.96 1.283-3.547 3.414-2.864A19.8 19.8 0 0 0 36.132 11zm-21.55 1.841c1.513.576.643 3.516-.484 4.133-.547.3-1.842.448-2.04-.327-.175.737-.258 1.566-.384 2.353h-.868c.39-2.02.759-4.06 1.07-6.159h.748c-.007.137-.054.232-.061.369v.003l-.02.017c.011 0 .022-.003.02-.017.389-.317 1.285-.651 2.02-.372zm3.293-.081c.715-.056 1.419.094 1.615.675.15.44-.021.925-.08 1.37a49.536 49.536 0 0 0-2.848 0c-.146.629-.143 1.352.303 1.638.59.378 1.587.074 2.16-.144-.037.234-.097.447-.12.696-1.394.343-3.136.394-3.292-1.023-.11-.994.264-2.085.727-2.578.377-.402.907-.585 1.535-.634zm-7.635.081h.869a59.075 59.075 0 0 0-.747 4.256h-.869c.277-1.363.536-2.744.727-4.194-.001-.03-.003-.058.02-.062zm22.66.02c-.057.188-.076.415-.12.615-1.36-.39-1.633.906-1.819 2.087-.087.553-.196.97-.202 1.534h-.888c.29-1.376.54-2.794.747-4.256h.768c-.067.206-.07.475-.142.676.25-.391.889-1.044 1.656-.655zm-9.754 3.234c.275.72 1.46.551 2.08.225-.045.214-.071.446-.121.654-1.135.397-2.536.341-2.848-.695-.267-.886.11-2.293.687-2.906.588-.625 1.698-.745 2.868-.552-.031.235-.08.452-.101.696-.714-.253-1.608-.327-2.06.122-.329.326-.541 1.046-.586 1.637-.02.263 0 .61.08.819zm-.485-3.254c-.023.222-.09.4-.101.635-.815-.295-1.38.245-1.596.88-.27.793-.322 1.912-.444 2.741h-.868c.263-1.398.54-2.781.727-4.256h.767c-.051.235-.077.495-.141.717.28-.5.886-1.032 1.656-.717zM8.665 11.123h1.01c-.397 1.944-.732 3.95-1.05 5.974h-.99c.156-1.001.358-1.956.525-2.946-.81-.078-1.822-.042-2.666-.02-.204.952-.35 1.964-.504 2.966H4c.387-1.953.703-3.98 1.05-5.974h.97c-.163.783-.28 1.612-.445 2.394.868.065 1.787.03 2.686.02.14-.8.28-1.599.404-2.414zm2.464.9c-.11.077-.48.165-.646 0-.17-.17-.07-.626.04-.777.068-.095.169-.155.344-.185.188-.032.323-.01.403.062.255.229.032.78-.14.9zm7.574 2.292c.184-.79-.264-1.048-.89-1.023a1.21 1.21 0 0 0-1.15 1.023h2.04zm-4.807 1.984c.385-.413.704-1.433.586-2.25-.137-.942-1.482-.873-1.94-.307-.066.335-.114.702-.181 1.084-.066.378-.2.76-.162 1.125.09.84 1.232.847 1.697.348zm14.218-.02c.34-.338.428-.95.505-1.432-1.027-.128-1.974.06-2.08.94-.129 1.062 1.127.936 1.575.492zm6.079.348c1.368-.03 1.262-1.956 1.555-3.151-.32-.11-.635-.213-1.07-.164-.936.106-1.397 1.289-1.374 2.353.013.608.304.974.889.962z"/>
    </g>
</svg>
