<svg xmlns="http://www.w3.org/2000/svg" width="40" height="30" viewBox="0 0 40 30">
    <g fill="none" fill-rule="evenodd">
        <rect width="40" height="30" fill="#0F0F12" rx="2"/>
        <path fill="#FFFFFE" d="M14.056 14.1l-5.63 2.448a3.339 3.339 0 0 1-.014-.297c0-1.797 1.443-3.253 3.225-3.253.963 0 1.828.426 2.419 1.102zm-2.42-3.535c2.657 0 4.884 1.855 5.48 4.35l-2.272 1.002v-.005l-2.324 1.03-5.576 2.46A5.693 5.693 0 0 1 6 16.25c0-3.14 2.524-5.686 5.637-5.686zm4.055 9.749c-2.044 1.962-4.75 2.155-7.126.696l1.343-2.065c1.352.817 2.71.685 4.076-.399l1.707 1.768zm2.01-1.618L17.686 8h2.056v10.407c0 .1.013.188.146.239l1.789.685-.806 2.065-2.096-.873c-.794-.332-1.073-.812-1.074-1.827z"/>
        <path fill="#2191C3" d="M25.382 18.689a3.206 3.206 0 0 1-.242-4.87l-1.306-2.114a5.658 5.658 0 0 0 .315 9.121l1.233-2.137"/>
        <path fill="#FAEC32" d="M26.148 12.937a3.24 3.24 0 0 1 4.128 1.903l2.517-.21a5.71 5.71 0 0 0-7.696-3.932l1.05 2.24"/>
        <path fill="#D0362B" d="M30.631 16.266c-.08 1.673-1.484 3.005-3.204 3.005-.27 0-.532-.033-.782-.094l-.978 2.228a5.736 5.736 0 0 0 1.76.276c3.046 0 5.529-2.37 5.65-5.34l-2.446-.075"/>
    </g>
</svg>
